<svg xmlns="http://www.w3.org/2000/svg" width="172.45" height="50.464" viewBox="0 0 172.45 50.464"><defs><style>.a{fill:#fff;}</style></defs><g transform="translate(-149.55 -3431.151)"><path class="a" d="M185.842,3481.221H181.78c-2.507,0-3.7-.439-3.7-2.924v-5.444a.07.07,0,0,1,.07-.068h2.075a.07.07,0,0,1,.07.068v5.444c0,.744.4,1.019,1.485,1.019h4.062a.07.07,0,0,1,.069.071v1.762a.071.071,0,0,1-.069.072"/><path class="a" d="M196.612,3472.785h-2.074a.07.07,0,0,0-.072.068v1.835a17.221,17.221,0,0,1-2.553,4.619h-.267a17.478,17.478,0,0,1-2.557-4.619v-1.835a.068.068,0,0,0-.069-.068h-2.075a.071.071,0,0,0-.072.068v1.835c0,1.559,3,6.56,3.769,6.56h2.28c.77,0,3.759-5,3.759-6.56v-1.835a.068.068,0,0,0-.069-.068"/><path class="a" d="M208.159,3476.43c0,2.4-1.547,2.871-4.218,2.871h-2.415v1.847a.074.074,0,0,1-.072.073h-2.073a.071.071,0,0,1-.07-.073v-5.442c0-2.485,1.192-2.921,3.7-2.921h.931c2.671,0,4.218.468,4.218,2.868Zm-2.216-.777c0-.7-.543-.966-2-.966h-.931c-1.081,0-1.484.276-1.484,1.019v1.693h2.415c1.459,0,2-.264,2-.969Z"/><path class="a" d="M182.3,3459.5h1.464a.335.335,0,0,0,.335-.336v-2.028h2.026a.333.333,0,0,0,.335-.335v-1.462a.335.335,0,0,0-.335-.339H184.1v-2.024a.335.335,0,0,0-.335-.337H182.3a.335.335,0,0,0-.335.337V3455h-2.025a.335.335,0,0,0-.338.339v1.462a.334.334,0,0,0,.338.335h2.025v2.028A.335.335,0,0,0,182.3,3459.5Z"/><path class="a" d="M192.53,3462.991a51.045,51.045,0,0,0-6.174.41l-5.439.9a6.131,6.131,0,0,1-3.257-.187,7.7,7.7,0,0,1-.891-.456,10.144,10.144,0,0,1-3.753-8.889,7.351,7.351,0,0,1,6.431-6.941l2.771-.055c.986.141,4.045.472,5.491.472l2.223.4.08.021.07.053.848.625-.623-1.963-1.215-1.189a1.933,1.933,0,0,1-.683-1c-.025-.066-.049-.141-.08-.226a4.827,4.827,0,0,0-2.549-3.192l-10.01-3.243-1.771-.709s-.345,1.429,1.483,3.026l-.073-.018c-.04-.01-.092-.022-.155-.035a8.639,8.639,0,0,1-4.111-2.336l-6.784-5.664-.193-.159-.04-.032a4.83,4.83,0,0,0-3.3-1.443c-.11,0-.224,0-.337.01-1.7.1-2.205.663-3.207,1.786l-.019.023-.022.018-.047.04a31.072,31.072,0,0,0-5.657,9.131,29.467,29.467,0,0,0-1.983,10.969,27.305,27.305,0,0,0,7.068,18.33,33.347,33.347,0,0,0,7.563,6.287,37.169,37.169,0,0,0,8.637,3.87c.384-1.607.289-2.71-1.415-3.665a28.53,28.53,0,0,1-6.938-3.961,28.06,28.06,0,0,1-5.562-5.726,25.977,25.977,0,0,1-5.016-15.317,27.559,27.559,0,0,1,5.133-15.726l.058-.079,0-.005a1.854,1.854,0,0,1,3.027-.475l.008.008.007,0,5.243,4.507.005,0,.623.526a4.708,4.708,0,0,0,1.766.918,3.516,3.516,0,0,1-2.943-.48l-6.056-4.278a39.608,39.608,0,0,0-4.047,7.837,21.042,21.042,0,0,0-1.259,7.418,24.625,24.625,0,0,0,8.931,19.1l.007.009.006.005a50.157,50.157,0,0,0,6.059,3.948c-.216-1.53-.465-4.129-.532-5.783-.185-.139-.421-.313-.686-.506-.869-.635-2.059-1.5-2.854-2.231l-.02-.017-.017-.019-.007-.007a18.832,18.832,0,0,1-4.232-5.2,13.85,13.85,0,0,1-2.191-8c1.695,9.06,10.039,14.186,10.039,14.186l-.188-4.312.01-.692.643.263a13.47,13.47,0,0,1,4.094,2.964c.031.017.059.027.09.041a3.666,3.666,0,0,1,.936,3.088c2.432.354,5.215-1.471,5.215-1.471a17.16,17.16,0,0,1,6.48-2.547c.3-.035.762-.083,1.351-.129.1,0,.164,0,.164,0l-.009-.01c.246-.019.515-.037.8-.053Zm-7.037-17.266.522.742-1.619.039a2.143,2.143,0,0,1-2.2-1.854Z"/><path class="a" d="M233.091,3442.159a31.03,31.03,0,0,0-5.657-9.131l-.045-.04-.023-.018-.019-.023c-1-1.123-1.5-1.685-3.207-1.786-.113-.006-.225-.01-.336-.01a4.832,4.832,0,0,0-3.305,1.443l-.041.032-.193.159-6.783,5.664a8.631,8.631,0,0,1-4.112,2.336l-.155.035-.072.018c1.828-1.6,1.484-3.026,1.484-3.026l-1.774.709-10.008,3.243a4.829,4.829,0,0,0-2.55,3.192c-.03.085-.053.16-.08.226a1.921,1.921,0,0,1-.682,1l-1.216,1.189-.623,1.963.848-.625.071-.053.081-.021,2.223-.4c1.446,0,4.5-.331,5.491-.472l2.771.055a7.348,7.348,0,0,1,6.429,6.941,10.144,10.144,0,0,1-3.753,8.889,7.617,7.617,0,0,1-.891.456,6.129,6.129,0,0,1-3.257.187l-5.438-.9a26.387,26.387,0,0,0-3.454-.357l-3.054,2.762c1.31-.016,2.789.014,4.348.135l-.015.018s.122,0,.333.009c.37.032.742.07,1.118.111a15.711,15.711,0,0,1,6.323,2.407s2.782,1.825,5.213,1.471a3.667,3.667,0,0,1,.938-3.088c.03-.014.057-.024.088-.041a13.474,13.474,0,0,1,4.1-2.964l.642-.263.01.692-.188,4.312s8.344-5.126,10.038-14.186a13.828,13.828,0,0,1-2.191,8,18.845,18.845,0,0,1-4.23,5.2l-.009.007-.016.019-.019.017c-.8.729-1.986,1.6-2.855,2.231-.264.193-.5.367-.685.506-.068,1.654-.317,4.253-.534,5.783a50,50,0,0,0,6.059-3.948l.007-.005.008-.009a24.615,24.615,0,0,0,8.929-19.1,21.042,21.042,0,0,0-1.259-7.418,39.5,39.5,0,0,0-4.046-7.837l-6.055,4.278a3.521,3.521,0,0,1-2.945.48,4.685,4.685,0,0,0,1.767-.918l.623-.526.005,0,5.243-4.507.007,0,.009-.008a1.853,1.853,0,0,1,3.026.475l0,.005.058.079a27.529,27.529,0,0,1,5.132,15.726,25.977,25.977,0,0,1-5.016,15.317,28.029,28.029,0,0,1-5.561,5.726,28.53,28.53,0,0,1-6.938,3.961c-1.705.955-1.8,2.058-1.416,3.665a37.194,37.194,0,0,0,8.638-3.87,33.38,33.38,0,0,0,7.565-6.287,27.312,27.312,0,0,0,7.065-18.33A29.468,29.468,0,0,0,233.091,3442.159Zm-32.862,4.347-1.619-.039.522-.742,3.3-1.073A2.144,2.144,0,0,1,200.229,3446.506Z"/><path class="a" d="M202.456,3460.6a1.25,1.25,0,1,0-1.25-1.252A1.252,1.252,0,0,0,202.456,3460.6Z"/><path class="a" d="M202.456,3454.639a1.25,1.25,0,1,0-1.25-1.251A1.254,1.254,0,0,0,202.456,3454.639Z"/><path class="a" d="M206.912,3456.306a1.25,1.25,0,1,0-1.249,1.25A1.251,1.251,0,0,0,206.912,3456.306Z"/><path class="a" d="M199.374,3457.556a1.251,1.251,0,1,0-1.251-1.25A1.252,1.252,0,0,0,199.374,3457.556Z"/><path class="a" d="M247.484,3448.353a18.966,18.966,0,0,1-2.207.1c-1.212,0-2.413-.237-2.413-2.1v-6.16a.228.228,0,0,1,.225-.227h.578a.229.229,0,0,1,.227.227v6.16c0,.86.193,1.178,1.394,1.178h2.185a.123.123,0,0,1,.125.135v.533A.159.159,0,0,1,247.484,3448.353Z"/><path class="a" d="M250.423,3448.377H249.8a.216.216,0,0,1-.2-.227v-7.973a.206.206,0,0,1,.2-.215h.624a.206.206,0,0,1,.2.215v7.973A.217.217,0,0,1,250.423,3448.377Z"/><path class="a" d="M258.1,3448.285a12.807,12.807,0,0,1-2.255.169c-1.415,0-2.932-.927-2.932-3.521v-1.516c0-2.752,1.585-3.534,3.035-3.534a13.2,13.2,0,0,1,2.152.159c.1.011.191.058.191.169v.567c0,.08-.044.114-.146.114H258.1c-.671-.057-1.191-.08-2.152-.08-1.054,0-2,.567-2,2.6v1.516c0,1.87.85,2.6,1.9,2.6.692,0,1.154-.045,1.428-.067v-3.238a.208.208,0,0,1,.2-.227h.611a.224.224,0,0,1,.215.227v3.8A.244.244,0,0,1,258.1,3448.285Z"/><path class="a" d="M265.948,3448.377h-.622a.216.216,0,0,1-.2-.227V3444.8h-3.465v3.352a.217.217,0,0,1-.2.227h-.624a.224.224,0,0,1-.2-.227v-5.922c0-1.732.8-2.345,2.435-2.345h.656c1.619,0,2.435.613,2.435,2.345v5.922A.223.223,0,0,1,265.948,3448.377Zm-.826-6.149c0-1.178-.373-1.438-1.4-1.438h-.656c-1.03,0-1.4.26-1.4,1.438v1.664h3.465Z"/><path class="a" d="M274.94,3448.454a16.4,16.4,0,0,1-2.061-.111.26.26,0,0,1-.24-.283v-7.781a.266.266,0,0,1,.24-.282,16.026,16.026,0,0,1,2.061-.114c2.1,0,3.431,1.076,3.431,3.522v1.528C278.371,3447.358,277.036,3448.454,274.94,3448.454Zm2.4-5.049c0-2.05-1.041-2.639-2.4-2.639-.532,0-.883.012-1.257.034v6.75c.362.022.725.022,1.257.022,1.36,0,2.4-.6,2.4-2.639Z"/><path class="a" d="M285.2,3448.4c-.431.046-1.54.056-2.208.056-1.585,0-2.412-.6-2.412-2.1v-4.36c0-1.506.827-2.106,2.412-2.106.668,0,1.732.024,2.208.068a.161.161,0,0,1,.114.159v.566a.123.123,0,0,1-.127.136h-2.184c-1.2,0-1.393.317-1.393,1.177v1.574h3.476a.229.229,0,0,1,.228.227v.43a.23.23,0,0,1-.228.227h-3.476v1.9c0,.86.194,1.178,1.393,1.178h2.184a.123.123,0,0,1,.127.135v.578A.159.159,0,0,1,285.2,3448.4Z"/><path class="a" d="M249.42,3452.848l-1.688,7.022a2.025,2.025,0,0,1-3.746,0l-1.688-7.022c0-.022-.012-.034-.012-.057a.193.193,0,0,1,.205-.181h1.574a.242.242,0,0,1,.226.2l1.415,6.534c.023.125.058.17.159.17s.136-.045.158-.17l1.416-6.534a.23.23,0,0,1,.214-.2h1.587a.176.176,0,0,1,.192.181A.537.537,0,0,0,249.42,3452.848Z"/><path class="a" d="M253.044,3461.025h-1.516a.209.209,0,0,1-.205-.226v-7.973a.2.2,0,0,1,.205-.216h1.516a.21.21,0,0,1,.216.216v7.973A.219.219,0,0,1,253.044,3461.025Z"/><path class="a" d="M258.289,3461.126a17.04,17.04,0,0,1-2.412-.169.344.344,0,0,1-.329-.4v-7.485a.343.343,0,0,1,.329-.4,17.012,17.012,0,0,1,2.412-.17c2.253,0,3.611,1.188,3.611,3.578v1.46C261.9,3459.937,260.542,3461.126,258.289,3461.126Zm1.676-5.039c0-1.529-.659-1.936-1.676-1.936-.285,0-.646.01-.8.023v5.288c.159.011.52.021.8.021,1.017,0,1.676-.407,1.676-1.936Z"/><path class="a" d="M268.9,3460.978a13.19,13.19,0,0,1-2.2.148c-1.461,0-2.752-.373-2.752-2.433v-3.76c0-2.063,1.3-2.424,2.763-2.424a13.3,13.3,0,0,1,2.187.147c.158.023.227.079.227.226v1.054a.227.227,0,0,1-.227.225h-2.3c-.532,0-.725.182-.725.772v1.029h2.933a.227.227,0,0,1,.226.228v1.074a.227.227,0,0,1-.226.228h-2.933v1.2c0,.587.193.769.725.769h2.3a.228.228,0,0,1,.227.227v1.053C269.131,3460.889,269.062,3460.957,268.9,3460.978Z"/><path class="a" d="M274.373,3461.126c-1.869,0-3.353-1.007-3.353-3.634v-1.349c0-2.626,1.484-3.634,3.353-3.634s3.352,1.008,3.352,3.634v1.349C277.725,3460.119,276.242,3461.126,274.373,3461.126Zm1.4-4.983c0-1.358-.453-1.937-1.4-1.937s-1.393.579-1.393,1.937v1.349c0,1.358.442,1.936,1.393,1.936s1.4-.578,1.4-1.936Z"/><path class="a" d="M279.682,3463.05a5.811,5.811,0,0,1-.723-.044.187.187,0,0,1-.17-.193v-1.156a.141.141,0,0,1,.125-.156h.565c.261,0,.294-.125.294-.409v-8.266a.219.219,0,0,1,.229-.216h1.481a.219.219,0,0,1,.229.216v8.266C281.712,3462.633,280.826,3463.05,279.682,3463.05Z"/><path class="a" d="M287.223,3461.126c-1.8,0-3.264-.679-3.264-3.262v-5.038a.219.219,0,0,1,.228-.216h1.484a.218.218,0,0,1,.226.216v5.038c0,1.156.306,1.643,1.326,1.643s1.336-.487,1.336-1.643v-5.038a.218.218,0,0,1,.226-.216h1.471a.228.228,0,0,1,.238.216v5.038C290.494,3460.447,289.023,3461.126,287.223,3461.126Z"/><path class="a" d="M297.657,3460.978a13.175,13.175,0,0,1-2.2.148c-1.462,0-2.752-.373-2.752-2.433v-3.76c0-2.063,1.3-2.424,2.762-2.424a13.285,13.285,0,0,1,2.187.147c.159.023.227.079.227.226v1.054a.226.226,0,0,1-.227.225h-2.3c-.531,0-.724.182-.724.772v1.029h2.932a.227.227,0,0,1,.227.228v1.074a.227.227,0,0,1-.227.228h-2.932v1.2c0,.587.193.769.724.769h2.3a.228.228,0,0,1,.227.227v1.053C297.884,3460.889,297.816,3460.957,297.657,3460.978Z"/><path class="a" d="M305.59,3454.286h-.033c-.543-.021-1.391-.09-2.354-.09-.917,0-1.483.441-1.483,1.926v1.415c0,1.562.714,1.925,1.268,1.925.317,0,.6-.011.872-.034v-2.6a.218.218,0,0,1,.215-.227h1.449a.227.227,0,0,1,.225.227v3.8c0,.157-.055.226-.225.261a12.4,12.4,0,0,1-2.536.237c-1.291,0-3.228-.735-3.228-3.6v-1.4c0-2.888,1.8-3.613,3.443-3.613a10.689,10.689,0,0,1,2.366.261c.114.021.193.068.193.169v1.2C305.762,3454.265,305.694,3454.286,305.59,3454.286Z"/><path class="a" d="M311.1,3461.126c-1.871,0-3.352-1.007-3.352-3.634v-1.349c0-2.626,1.481-3.634,3.352-3.634s3.35,1.008,3.35,3.634v1.349C314.453,3460.119,312.97,3461.126,311.1,3461.126Zm1.4-4.983c0-1.358-.452-1.937-1.4-1.937s-1.395.579-1.395,1.937v1.349c0,1.358.441,1.936,1.395,1.936s1.4-.578,1.4-1.936Z"/><path class="a" d="M318.907,3461.126a8.424,8.424,0,0,1-2.139-.248c-.114-.035-.227-.1-.227-.227v-1.11a.188.188,0,0,1,.205-.214h.035c.463.043,1.708.135,2.15.135.779,0,1.009-.249,1.009-.793,0-.329-.161-.509-.75-.86l-1.562-.928a2.317,2.317,0,0,1-1.335-2.165c0-1.245.7-2.207,2.9-2.207a12.618,12.618,0,0,1,2.4.247.2.2,0,0,1,.17.206v1.143a.173.173,0,0,1-.193.193h-.023c-.316-.023-1.63-.124-2.4-.124-.646,0-.885.193-.885.6,0,.317.148.465.76.793l1.449.782a2.422,2.422,0,0,1,1.529,2.3C322,3459.847,321.207,3461.126,318.907,3461.126Z"/><path class="a" d="M245.016,3470.319c-.364,0-.84-.034-1.132-.055v3.182a.215.215,0,0,1-.205.225h-.611a.216.216,0,0,1-.2-.225v-7.894a.277.277,0,0,1,.272-.283,18.317,18.317,0,0,1,1.88-.09c1.834,0,3.17.634,3.17,2.456v.148C248.186,3469.674,246.85,3470.319,245.016,3470.319Zm2.14-2.684c0-1.143-.679-1.585-2.14-1.585-.352,0-.861.024-1.132.045v3.319c.26.011.837.045,1.132.045,1.551,0,2.14-.5,2.14-1.676Z"/><path class="a" d="M255.877,3473.671h-.725c-.136,0-.2,0-.295-.146l-2.027-3.376h-.294c-.374,0-.646-.01-1.246-.034v3.331a.214.214,0,0,1-.2.225h-.612a.213.213,0,0,1-.2-.225v-7.928c0-.159.066-.226.27-.249.486-.056,1.336-.09,1.993-.09,1.789,0,3.17.6,3.17,2.435v.079a2.228,2.228,0,0,1-1.777,2.287l2.06,3.443a.177.177,0,0,1,.035.1A.141.141,0,0,1,255.877,3473.671Zm-1.19-6.057c0-1.135-.735-1.507-2.151-1.507-.351,0-.974,0-1.246.033v3.1c.5.011.986.022,1.246.022,1.393,0,2.151-.351,2.151-1.573Z"/><path class="a" d="M260.869,3473.75c-1.777,0-3.068-1.041-3.068-3.555v-1.461c0-2.514,1.291-3.555,3.068-3.555s3.058,1.041,3.058,3.555v1.461C263.927,3472.709,262.647,3473.75,260.869,3473.75Zm2.015-5.016c0-1.9-.77-2.627-2.015-2.627s-2.026.723-2.026,2.627v1.461c0,1.9.78,2.626,2.026,2.626s2.015-.722,2.015-2.626Z"/><path class="a" d="M270.676,3469.741H267.2v3.705a.227.227,0,0,1-.229.225H266.4a.228.228,0,0,1-.228-.225v-6.161c0-1.507.827-2.106,2.413-2.106.669,0,1.734.022,2.208.068a.159.159,0,0,1,.114.159v.565a.122.122,0,0,1-.126.136h-2.184c-1.2,0-1.392.317-1.392,1.178v1.573h3.475a.228.228,0,0,1,.227.227v.43A.227.227,0,0,1,270.676,3469.741Z"/><path class="a" d="M277.659,3473.7c-.431.045-1.541.055-2.207.055-1.588,0-2.413-.6-2.413-2.106v-4.359c0-1.507.825-2.106,2.413-2.106.666,0,1.731.022,2.207.068a.16.16,0,0,1,.113.159v.565a.123.123,0,0,1-.125.136h-2.184c-1.2,0-1.392.317-1.392,1.178v1.573h3.473a.229.229,0,0,1,.228.227v.43a.228.228,0,0,1-.228.226h-3.473v1.9c0,.861.191,1.177,1.392,1.177h2.184a.124.124,0,0,1,.125.137v.578A.163.163,0,0,1,277.659,3473.7Z"/><path class="a" d="M281.951,3473.75a11.375,11.375,0,0,1-1.879-.158c-.192-.034-.216-.08-.216-.2v-.452a.176.176,0,0,1,.193-.182h.034c.521.045,1.348.067,1.868.067,1.359,0,1.721-.543,1.721-1.335,0-.567-.328-.884-1.358-1.518l-1.1-.668c-1.043-.634-1.563-1.212-1.563-2.116,0-1.371.985-2.005,2.706-2.005a15.537,15.537,0,0,1,1.97.135c.114.023.194.079.194.193v.486a.177.177,0,0,1-.194.182h-.023c-.5-.035-1.289-.068-1.947-.068-1.166,0-1.666.248-1.666,1.077,0,.531.376.848,1.235,1.368l1.042.624c1.314.781,1.778,1.405,1.778,2.31C284.748,3472.572,284.182,3473.75,281.951,3473.75Z"/><path class="a" d="M287.737,3473.671h-.623a.214.214,0,0,1-.2-.225v-7.973a.205.205,0,0,1,.2-.215h.623a.2.2,0,0,1,.2.215v7.973A.215.215,0,0,1,287.737,3473.671Z"/><path class="a" d="M293.3,3473.75c-1.777,0-3.069-1.041-3.069-3.555v-1.461c0-2.514,1.292-3.555,3.069-3.555s3.056,1.041,3.056,3.555v1.461C296.357,3472.709,295.078,3473.75,293.3,3473.75Zm2.016-5.016c0-1.9-.772-2.627-2.016-2.627s-2.028.723-2.028,2.627v1.461c0,1.9.782,2.626,2.028,2.626s2.016-.722,2.016-2.626Z"/><path class="a" d="M304.233,3473.671H303.6a.206.206,0,0,1-.193-.225v-5.007c0-1.968-.679-2.365-2.083-2.365-.486,0-1.393.045-1.676.066v7.306a.215.215,0,0,1-.2.225h-.623a.206.206,0,0,1-.2-.225V3465.7c0-.282.09-.362.315-.4a21.739,21.739,0,0,1,2.413-.136c2.037,0,3.092.769,3.092,3.271v5.007A.216.216,0,0,1,304.233,3473.671Z"/><path class="a" d="M312.147,3473.671h-.622a.214.214,0,0,1-.2-.225v-3.354h-3.465v3.354a.214.214,0,0,1-.2.225h-.623a.222.222,0,0,1-.2-.225v-5.923c0-1.733.8-2.344,2.434-2.344h.656c1.619,0,2.437.611,2.437,2.344v5.923A.223.223,0,0,1,312.147,3473.671Zm-.826-6.148c0-1.179-.375-1.438-1.405-1.438h-.656c-1.032,0-1.4.259-1.4,1.438v1.666h3.465Z"/><path class="a" d="M319.394,3473.649a18.668,18.668,0,0,1-2.207.1c-1.211,0-2.411-.238-2.411-2.106v-6.159a.226.226,0,0,1,.227-.227h.576a.226.226,0,0,1,.225.227v6.159c0,.861.2,1.177,1.394,1.177h2.184a.123.123,0,0,1,.127.137v.532A.16.16,0,0,1,319.394,3473.649Z"/></g></svg>